<svg width="43" height="43" viewBox="0 0 43 43" fill="none" xmlns="http://www.w3.org/2000/svg">
<path fill-rule="evenodd" clip-rule="evenodd" d="M21.4667 0C9.61095 0 0 9.61095 0 21.4667C0 33.3224 9.61095 42.9333 21.4667 42.9333C33.3224 42.9333 42.9333 33.3224 42.9333 21.4667C42.9333 9.61095 33.3224 0 21.4667 0ZM29.0832 19.6917C29.7119 19.0629 29.7119 18.0435 29.0832 17.4148C28.4544 16.786 27.435 16.786 26.8063 17.4148L20.3551 23.866L17.6987 21.2096C17.07 20.5809 16.0506 20.5809 15.4218 21.2096C14.7931 21.8383 14.7931 22.8577 15.4218 23.4865L19.2167 27.2813C19.8454 27.91 20.8648 27.91 21.4935 27.2813L29.0832 19.6917Z" fill="white"/>
</svg>
