<svg width="41" height="41" viewBox="0 0 41 41" fill="none" xmlns="http://www.w3.org/2000/svg">
<path d="M9.57248 31.5L24.4638 24.5507L31.4131 9.65939L16.5218 16.6087L9.57248 31.5ZM20.4928 22.5652C19.9302 22.5652 19.4583 22.3746 19.0771 21.9934C18.6959 21.6121 18.5059 21.1409 18.5073 20.5797C18.5073 20.0171 18.6979 19.5452 19.0791 19.164C19.4603 18.7828 19.9315 18.5929 20.4928 18.5942C21.0553 18.5942 21.5272 18.7848 21.9084 19.166C22.2897 19.5472 22.4796 20.0184 22.4783 20.5797C22.4783 21.1422 22.2877 21.6141 21.9064 21.9953C21.5252 22.3766 21.054 22.5665 20.4928 22.5652ZM20.4928 40.4348C17.7461 40.4348 15.165 39.9132 12.7493 38.8702C10.3336 37.8271 8.23226 36.4128 6.4453 34.6271C4.65835 32.8402 3.244 30.7389 2.20228 28.3232C1.16055 25.9075 0.639019 23.3263 0.637695 20.5797C0.637695 17.8331 1.15922 15.2519 2.20228 12.8362C3.24533 10.4205 4.65967 8.31917 6.4453 6.53222C8.23226 4.74526 10.3336 3.33092 12.7493 2.28919C15.165 1.24746 17.7461 0.725933 20.4928 0.724609C23.2394 0.724609 25.8205 1.24614 28.2362 2.28919C30.6519 3.33224 32.7533 4.74659 34.5402 6.53222C36.3272 8.31917 37.7422 10.4205 38.7852 12.8362C39.8283 15.2519 40.3492 17.8331 40.3478 20.5797C40.3478 23.3263 39.8263 25.9075 38.7833 28.3232C37.7402 30.7389 36.3259 32.8402 34.5402 34.6271C32.7533 36.4141 30.6519 37.8291 28.2362 38.8722C25.8205 39.9152 23.2394 40.4361 20.4928 40.4348ZM20.4928 36.4637C24.9271 36.4637 28.683 34.925 31.7605 31.8474C34.8381 28.7699 36.3768 25.014 36.3768 20.5797C36.3768 16.1454 34.8381 12.3895 31.7605 9.31193C28.683 6.23439 24.9271 4.69562 20.4928 4.69562C16.0585 4.69562 12.3025 6.23439 9.22501 9.31193C6.14748 12.3895 4.60871 16.1454 4.60871 20.5797C4.60871 25.014 6.14748 28.7699 9.22501 31.8474C12.3025 34.925 16.0585 36.4637 20.4928 36.4637Z" fill="white"/>
</svg>
