<svg width="20" height="20" viewBox="0 0 20 20" fill="none" xmlns="http://www.w3.org/2000/svg">
<circle cx="10" cy="10" r="9.25" stroke="white" stroke-width="1.5"/>
<path d="M10.7541 5L10.5738 11.4011H9.32787L9.14754 5H10.7541ZM10.0164 14C9.73224 14 9.4918 13.9232 9.29508 13.7696C9.09836 13.6159 9 13.4282 9 13.2063C9 12.9844 9.09836 12.7966 9.29508 12.643C9.4918 12.4893 9.73224 12.4125 10.0164 12.4125C10.2896 12.4125 10.5191 12.4893 10.7049 12.643C10.9016 12.7966 11 12.9844 11 13.2063C11 13.4282 10.9016 13.6159 10.7049 13.7696C10.5191 13.9232 10.2896 14 10.0164 14Z" fill="white"/>
</svg>
