<svg width="39" height="39" viewBox="0 0 39 39" fill="none" xmlns="http://www.w3.org/2000/svg">
<path fill-rule="evenodd" clip-rule="evenodd" d="M11.5016 3.58976C9.42966 3.59545 7.44479 4.42378 5.98344 5.89261C4.52209 7.36144 3.70391 9.35051 3.7088 11.4225C3.7088 15.9539 6.33811 20.6634 9.90623 25.0139C13.0387 28.8366 16.7234 32.1777 19.5 34.6567C22.2765 32.1777 25.9613 28.8366 29.0937 25.0139C32.6618 20.6634 35.2912 15.9539 35.2912 11.4225C35.296 9.35051 34.4779 7.36144 33.0165 5.89261C31.5552 4.42378 29.5703 3.59545 27.4983 3.58976C24.9335 3.58976 23.5467 4.48256 22.6907 5.44899C21.89 6.35406 21.4819 7.37572 21.1107 8.3084L20.9174 8.78702C20.8014 9.06743 20.6047 9.30713 20.3524 9.47577C20.1001 9.64442 19.8035 9.73444 19.5 9.73444C19.1965 9.73444 18.8998 9.64442 18.6475 9.47577C18.3952 9.30713 18.1986 9.06743 18.0825 8.78702L17.8893 8.3084C17.518 7.37572 17.11 6.35406 16.3092 5.44899C15.4532 4.48256 14.0696 3.58976 11.5016 3.58976ZM0.640763 11.4225C0.635877 8.53682 1.7773 5.76738 3.81402 3.72318C5.85073 1.67899 8.61597 0.527419 11.5016 0.521729C14.9225 0.521729 17.1529 1.77349 18.6072 3.41489C18.9508 3.80146 19.2453 4.20951 19.5 4.61142C19.7546 4.20951 20.0522 3.80146 20.3928 3.41489C21.847 1.77349 24.0744 0.521729 27.4983 0.521729C30.384 0.527419 33.1492 1.67899 35.1859 3.72318C37.2227 5.76738 38.3641 8.53682 38.3592 11.4225C38.3592 17.0523 35.15 22.4674 31.4684 26.959C27.98 31.2144 23.8597 34.8807 21.0524 37.3811L20.5216 37.8566C20.2405 38.1076 19.8768 38.2464 19.5 38.2464C19.1231 38.2464 18.7594 38.1076 18.4783 37.8566L17.9476 37.3811C15.1372 34.8807 11.0199 31.2144 7.53157 26.959C3.853 22.4674 0.637695 17.0523 0.637695 11.4225H0.640763Z" fill="white"/>
</svg>
