<svg width="41" height="41" viewBox="0 0 41 41" fill="none" xmlns="http://www.w3.org/2000/svg">
<path d="M20.4928 40.3334C15.8599 40.3334 11.7602 38.9267 8.19366 36.1131C4.6271 33.2996 2.31068 29.7058 1.24439 25.3318C1.09731 24.7803 1.20762 24.2751 1.5753 23.8162C1.94299 23.3573 2.43937 23.0904 3.06443 23.0154C3.65273 22.9419 4.18588 23.0522 4.66387 23.3463C5.14186 23.6405 5.47278 24.0817 5.65662 24.67C6.53907 27.9792 8.35912 30.6817 11.1168 32.7775C13.8744 34.8733 16.9998 35.9212 20.4928 35.9212C24.7947 35.9212 28.4444 34.4225 31.4417 31.4251C34.4391 28.4277 35.9371 24.7788 35.9356 20.4784C35.9356 16.1764 34.4369 12.5268 31.4395 9.52939C28.4422 6.53201 24.7932 5.03406 20.4928 5.03553C17.9557 5.03553 15.5842 5.62383 13.378 6.80042C11.1719 7.97702 9.3151 9.59484 7.80759 11.6539H11.6683C12.2934 11.6539 12.8177 11.8657 13.2413 12.2892C13.6648 12.7128 13.8759 13.2364 13.8744 13.86C13.8744 14.4851 13.6626 15.0094 13.2391 15.433C12.8155 15.8565 12.2919 16.0676 11.6683 16.0661H2.84382C2.21875 16.0661 1.69443 15.8543 1.27086 15.4308C0.847284 15.0072 0.636232 14.4836 0.637703 13.86V5.03553C0.637703 4.41046 0.849491 3.88614 1.27307 3.46257C1.69664 3.03899 2.22023 2.82794 2.84382 2.82941C3.46889 2.82941 3.99321 3.0412 4.41678 3.46477C4.84036 3.88835 5.05141 4.41193 5.04994 5.03553V8.01379C6.92514 5.6606 9.21436 3.84055 11.9176 2.55364C14.6208 1.26674 17.4792 0.623291 20.4928 0.623291C23.2504 0.623291 25.8338 1.14761 28.2429 2.19625C30.6519 3.2449 32.7478 4.65975 34.5303 6.44083C36.3129 8.22484 37.7284 10.3207 38.7771 12.7283C39.8257 15.1359 40.3493 17.7192 40.3478 20.4784C40.3478 23.236 39.8235 25.8194 38.7749 28.2285C37.7262 30.6375 36.3114 32.7334 34.5303 34.5159C32.7463 36.2984 30.6505 37.714 28.2429 38.7627C25.8353 39.8113 23.2519 40.3349 20.4928 40.3334ZM22.6989 19.5959L28.2142 25.1112C28.6186 25.5157 28.8209 26.0304 28.8209 26.6555C28.8209 27.2806 28.6186 27.7953 28.2142 28.1998C27.8097 28.6042 27.295 28.8065 26.6699 28.8065C26.0448 28.8065 25.5301 28.6042 25.1256 28.1998L18.9485 22.0226C18.7279 21.802 18.5624 21.5542 18.4521 21.2792C18.3418 21.0042 18.2867 20.7188 18.2867 20.4232V11.6539C18.2867 11.0288 18.4984 10.5045 18.922 10.0809C19.3456 9.65735 19.8692 9.4463 20.4928 9.44777C21.1178 9.44777 21.6422 9.65955 22.0657 10.0831C22.4893 10.5067 22.7004 11.0303 22.6989 11.6539V19.5959Z" fill="white"/>
</svg>
