<svg width="44" height="44" viewBox="0 0 44 44" fill="none" xmlns="http://www.w3.org/2000/svg">
<path fill-rule="evenodd" clip-rule="evenodd" d="M11.7764 0.712191H12.0285C12.7255 0.712191 13.1742 0.712191 13.613 0.751901C15.5024 0.928507 17.2947 1.671 18.7554 2.88235C19.093 3.16429 19.4107 3.48197 19.9051 3.97438L21.0487 5.12002C22.7284 6.79777 23.3737 7.42519 24.1203 7.84016C24.5531 8.08041 25.0118 8.27102 25.4883 8.40802C26.3083 8.64032 27.2078 8.65422 29.5824 8.65422H30.4263C32.9538 8.65422 34.9929 8.65422 36.6032 8.85674C38.273 9.06721 39.6926 9.51593 40.8601 10.5643C41.0547 10.739 41.2413 10.9256 41.416 11.1202C42.4664 12.2877 42.9131 13.7073 43.1236 15.3771C43.3261 16.9894 43.3261 19.0265 43.3261 21.5541V26.1406C43.3261 29.788 43.3261 32.6789 43.0223 34.9403C42.7086 37.2674 42.0494 39.1516 40.5643 40.6388C39.0771 42.1239 37.1929 42.7831 34.8659 43.0968C32.6024 43.4006 29.7135 43.4006 26.0641 43.4006H17.8997C14.2503 43.4006 11.3594 43.4006 9.09794 43.0968C6.77093 42.7831 4.88668 42.1239 3.39954 40.6388C1.91438 39.1516 1.25519 37.2674 0.941478 34.9403C0.637695 32.6769 0.637695 29.788 0.637695 26.1386V11.8509C0.637695 10.2684 0.637695 9.26377 0.800507 8.3961C1.15163 6.53096 2.0573 4.81515 3.39915 3.47295C4.74099 2.13076 6.45656 1.22463 8.32161 0.873017C9.19126 0.710205 10.1959 0.710205 11.7764 0.710205V0.712191ZM11.9551 3.69045C10.1344 3.69045 9.43151 3.69641 8.87159 3.80164C7.59656 4.04267 6.4238 4.6625 5.50643 5.58024C4.58905 6.49797 3.96967 7.67096 3.72913 8.94609C3.62191 9.506 3.61596 10.2089 3.61596 12.0296V26.0274C3.61596 29.8138 3.61993 32.5041 3.89393 34.5452C4.16197 36.5407 4.66629 37.6923 5.50616 38.5321C6.34603 39.372 7.49762 39.8763 9.49504 40.1444C11.5361 40.4184 14.2245 40.4223 18.0109 40.4223H25.9529C29.7393 40.4223 32.4296 40.4184 34.4707 40.1444C36.4662 39.8763 37.6178 39.372 38.4576 38.5321C39.2975 37.6923 39.8018 36.5407 40.0699 34.5432C40.3439 32.5041 40.3478 29.8138 40.3478 26.0274V21.6553C40.3478 19.0027 40.3459 17.1522 40.1691 15.7484C39.9964 14.3804 39.6807 13.6438 39.2022 13.1117C39.097 12.9947 38.9856 12.8833 38.8686 12.7781C38.3365 12.2996 37.5979 11.9839 36.2319 11.8112C34.8281 11.6345 32.9776 11.6325 30.325 11.6325H29.364C27.2832 11.6325 25.941 11.6325 24.6723 11.2711C23.9773 11.0726 23.3042 10.7946 22.6709 10.4432C21.5193 9.79986 20.5702 8.85277 19.097 7.37952L18.9441 7.22465L17.852 6.13263C17.5331 5.79932 17.1999 5.48002 16.8533 5.17561C15.8544 4.34731 14.629 3.83942 13.337 3.71825C12.877 3.68901 12.4159 3.67973 11.9551 3.69045ZM22.4783 18.0854C22.4783 17.6904 22.6352 17.3117 22.9144 17.0324C23.1937 16.7531 23.5725 16.5962 23.9674 16.5962H33.8949C34.2899 16.5962 34.6686 16.7531 34.9479 17.0324C35.2272 17.3117 35.3841 17.6904 35.3841 18.0854C35.3841 18.4803 35.2272 18.8591 34.9479 19.1384C34.6686 19.4176 34.2899 19.5745 33.8949 19.5745H23.9674C23.5725 19.5745 23.1937 19.4176 22.9144 19.1384C22.6352 18.8591 22.4783 18.4803 22.4783 18.0854Z" fill="white"/>
</svg>
