<svg width="40" height="44" viewBox="0 0 40 44" fill="none" xmlns="http://www.w3.org/2000/svg">
<path d="M33.5324 17.3072V15.9075C33.5324 8.2261 27.5283 2 20.1303 2C12.7324 2 6.72823 8.2261 6.72823 15.9075V17.3072C6.73062 18.9779 6.25378 20.6144 5.35426 22.0224L3.15434 25.4472C1.147 28.5741 2.6798 32.8248 6.17229 33.8135C15.2978 36.4003 24.9628 36.4003 34.0883 33.8135C37.5808 32.8248 39.1136 28.5741 37.1063 25.4491L34.9064 22.0244C34.0061 20.6166 33.5286 18.9801 33.5304 17.3091L33.5324 17.3072Z" stroke="white" stroke-width="2.97826"/>
<path d="M12.1885 35.7539C13.489 39.2246 16.9974 41.7104 21.1233 41.7104C25.2491 41.7104 28.7575 39.2246 30.058 35.7539" stroke="white" stroke-width="2.97826" stroke-linecap="round"/>
</svg>
