<svg width="39" height="39" viewBox="0 0 39 39" fill="none" xmlns="http://www.w3.org/2000/svg">
<path d="M30.7772 28.0626L39 36.2834L36.2834 39L28.0626 30.7772C25.0037 33.2293 21.1991 34.563 17.2787 34.5575C7.74087 34.5575 0 26.8166 0 17.2787C0 7.74087 7.74087 0 17.2787 0C26.8166 0 34.5575 7.74087 34.5575 17.2787C34.563 21.1991 33.2293 25.0037 30.7772 28.0626ZM26.926 26.638C29.3625 24.1324 30.7232 20.7737 30.7177 17.2787C30.7177 9.85463 24.7028 3.83972 17.2787 3.83972C9.85463 3.83972 3.83972 9.85463 3.83972 17.2787C3.83972 24.7028 9.85463 30.7177 17.2787 30.7177C20.7737 30.7232 24.1324 29.3625 26.638 26.926L26.926 26.638Z" fill="#5E5E5E"/>
</svg>
