<svg width="39" height="41" viewBox="0 0 39 41" fill="none" xmlns="http://www.w3.org/2000/svg">
<path d="M37.7356 25.2939L34.8325 22.8119C34.9699 21.9697 35.0408 21.1099 35.0408 20.25C35.0408 19.3902 34.9699 18.5303 34.8325 17.6882L37.7356 15.2061C37.9546 15.0187 38.1113 14.769 38.1849 14.4903C38.2585 14.2116 38.2456 13.9171 38.1478 13.646L38.1079 13.5307C37.3087 11.297 36.1119 9.22631 34.5754 7.41868L34.4956 7.3256C34.3092 7.10644 34.0608 6.94889 33.7831 6.87372C33.5054 6.79856 33.2114 6.8093 32.9399 6.90454L29.3365 8.18546C28.0068 7.09513 26.522 6.23527 24.9175 5.63249L24.2217 1.86508C24.1692 1.5816 24.0317 1.32081 23.8274 1.11735C23.6232 0.913889 23.3618 0.777391 23.0782 0.725992L22.9585 0.703831C20.6493 0.2872 18.2204 0.2872 15.9112 0.703831L15.7915 0.725992C15.5079 0.777391 15.2465 0.913889 15.0423 1.11735C14.838 1.32081 14.7005 1.5816 14.648 1.86508L13.9477 5.65021C12.3561 6.25313 10.8738 7.11252 9.55981 8.19432L5.9298 6.90454C5.6584 6.80855 5.36421 6.79742 5.08633 6.87263C4.80844 6.94784 4.56003 7.10583 4.37409 7.3256L4.29431 7.41868C2.75962 9.22758 1.56305 11.2979 0.761807 13.5307L0.721917 13.646C0.522466 14.2 0.686459 14.8205 1.13412 15.2061L4.07269 17.7148C3.93529 18.548 3.86881 19.399 3.86881 20.2456C3.86881 21.0966 3.93529 21.9476 4.07269 22.7764L1.13412 25.2851C0.915144 25.4725 0.758423 25.7222 0.684792 26.0009C0.611162 26.2796 0.62411 26.5741 0.721917 26.8452L0.761807 26.9604C1.56404 29.1943 2.75188 31.2553 4.29431 33.0725L4.37409 33.1656C4.56048 33.3847 4.80891 33.5423 5.08662 33.6175C5.36434 33.6926 5.65831 33.6819 5.9298 33.5866L9.55981 32.2969C10.8806 33.3828 12.3566 34.2426 13.9477 34.841L14.648 38.6261C14.7005 38.9096 14.838 39.1704 15.0423 39.3738C15.2465 39.5773 15.5079 39.7138 15.7915 39.7652L15.9112 39.7874C18.2416 40.2062 20.6281 40.2062 22.9585 39.7874L23.0782 39.7652C23.3618 39.7138 23.6232 39.5773 23.8274 39.3738C24.0317 39.1704 24.1692 38.9096 24.2217 38.6261L24.9175 34.8587C26.5214 34.2575 28.0145 33.3948 29.3365 32.3057L32.9399 33.5866C33.2113 33.6826 33.5055 33.6938 33.7834 33.6186C34.0613 33.5434 34.3097 33.3854 34.4956 33.1656L34.5754 33.0725C36.1178 31.2509 37.3057 29.1943 38.1079 26.9604L38.1478 26.8452C38.3472 26.3 38.1832 25.6795 37.7356 25.2939ZM31.6856 18.2112C31.7964 18.8805 31.854 19.5675 31.854 20.2545C31.854 20.9415 31.7964 21.6285 31.6856 22.2977L31.393 24.0751L34.7039 26.9073C34.202 28.0636 33.5684 29.1582 32.8158 30.1694L28.7027 28.7112L27.3109 29.8547C26.2516 30.7234 25.0727 31.406 23.7962 31.8847L22.1075 32.5185L21.3141 36.8178C20.0623 36.9596 18.7985 36.9596 17.5467 36.8178L16.7533 32.5096L15.078 31.8669C13.8148 31.3883 12.6402 30.7057 11.5898 29.8414L10.1981 28.6935L6.05834 30.165C5.30486 29.15 4.67548 28.0552 4.1702 26.9028L7.51655 24.044L7.22845 22.2711C7.12208 21.6107 7.06446 20.9282 7.06446 20.2545C7.06446 19.5763 7.11764 18.8982 7.22845 18.2378L7.51655 16.4649L4.1702 13.6061C4.67105 12.4493 5.30486 11.3589 6.05834 10.344L10.1981 11.8155L11.5898 10.6675C12.6402 9.80323 13.8148 9.12066 15.078 8.64198L16.7578 8.00817L17.5511 3.70003C18.7966 3.5582 20.0687 3.5582 21.3186 3.70003L22.1119 7.9993L23.8006 8.63311C25.0727 9.1118 26.2561 9.79436 27.3154 10.6631L28.7071 11.8066L32.8202 10.3484C33.5737 11.3634 34.2031 12.4581 34.7084 13.6105L31.3975 16.4427L31.6856 18.2112ZM19.4393 12.0105C15.1311 12.0105 11.6385 15.5031 11.6385 19.8112C11.6385 24.1194 15.1311 27.612 19.4393 27.612C23.7474 27.612 27.24 24.1194 27.24 19.8112C27.24 15.5031 23.7474 12.0105 19.4393 12.0105ZM22.9496 23.3216C22.4892 23.7833 21.942 24.1495 21.3396 24.399C20.7372 24.6484 20.0913 24.7764 19.4393 24.7753C18.114 24.7753 16.8686 24.2568 15.9289 23.3216C15.4672 22.8612 15.1011 22.314 14.8516 21.7116C14.6021 21.1091 14.4742 20.4633 14.4752 19.8112C14.4752 18.486 14.9937 17.2405 15.9289 16.3009C16.8686 15.3613 18.114 14.8471 19.4393 14.8471C20.7645 14.8471 22.01 15.3613 22.9496 16.3009C23.4114 16.7613 23.7775 17.3085 24.027 17.9109C24.2765 18.5134 24.4044 19.1592 24.4034 19.8112C24.4034 21.1365 23.8848 22.3819 22.9496 23.3216Z" fill="white"/>
</svg>
