<svg width="40" height="44" viewBox="0 0 40 44" fill="none" xmlns="http://www.w3.org/2000/svg">
<path fill-rule="evenodd" clip-rule="evenodd" d="M14.5362 2.3153C14.5362 1.92036 14.6931 1.54159 14.9724 1.26233C15.2517 0.983062 15.6304 0.826172 16.0254 0.826172H23.9674C24.3623 0.826172 24.7411 0.983062 25.0204 1.26233C25.2996 1.54159 25.4565 1.92036 25.4565 2.3153C25.4565 2.71024 25.2996 3.08901 25.0204 3.36828C24.7411 3.64754 24.3623 3.80443 23.9674 3.80443H16.0254C15.6304 3.80443 15.2517 3.64754 14.9724 3.36828C14.6931 3.08901 14.5362 2.71024 14.5362 2.3153ZM19.9964 7.77545C15.652 7.77545 11.4856 9.50124 8.41367 12.5732C5.34175 15.6451 3.61596 19.8115 3.61596 24.1559C3.61596 28.5002 5.34175 32.6667 8.41367 35.7386C11.4856 38.8105 15.652 40.5363 19.9964 40.5363C24.3408 40.5363 28.5072 38.8105 31.5791 35.7386C34.651 32.6667 36.3768 28.5002 36.3768 24.1559C36.3768 19.8115 34.651 15.6451 31.5791 12.5732C28.5072 9.50124 24.3408 7.77545 19.9964 7.77545ZM0.637695 24.1559C0.637695 13.4639 9.30443 4.79719 19.9964 4.79719C30.6883 4.79719 39.3551 13.4639 39.3551 24.1559C39.3551 34.8478 30.6883 43.5146 19.9964 43.5146C9.30443 43.5146 0.637695 34.8478 0.637695 24.1559ZM21.1341 16.3925L21.2512 16.464C21.8211 16.8115 22.383 17.1709 22.8893 17.5263C23.4651 17.9313 24.0806 18.4078 24.6862 18.9022L24.7775 18.9757C25.7663 19.7818 26.6538 20.5065 27.2753 21.2292C27.9781 22.0493 28.4348 22.9705 28.4348 24.1559C28.4348 25.3412 27.9781 26.2605 27.2753 27.0825C26.6538 27.8052 25.7663 28.53 24.7775 29.3361L24.6862 29.4095C24.0806 29.9059 23.4651 30.3824 22.8893 30.7855C22.383 31.1409 21.8211 31.5003 21.2512 31.8477L21.1321 31.9192C20.1711 32.5049 19.2618 33.0589 18.4656 33.3448C18.0228 33.5036 17.5165 33.6188 16.9685 33.5791C16.4107 33.5364 15.8774 33.3322 15.4337 32.9914C14.5223 32.3084 14.157 31.3176 13.9644 30.3308C13.7837 29.3936 13.7142 28.1845 13.6328 26.7708L13.6269 26.6675C13.5753 25.8019 13.5435 24.9402 13.5435 24.1559C13.5435 23.3716 13.5753 22.5079 13.6269 21.6442L13.6328 21.541C13.7123 20.1273 13.7837 18.9201 13.9664 17.981C14.157 16.9942 14.5223 16.0034 15.4357 15.3204C15.8824 14.9828 16.3947 14.7763 16.9685 14.7327C17.5165 14.693 18.0228 14.8081 18.4656 14.967C19.2598 15.2529 20.1711 15.8068 21.1341 16.3925ZM17.2167 17.705C17.169 17.7427 17.0181 17.8757 16.8891 18.5468C16.7501 19.2656 16.6905 20.2702 16.5992 21.815C16.5515 22.6469 16.5218 23.449 16.5218 24.1559C16.5218 24.8627 16.5515 25.6649 16.6012 26.4968C16.6885 28.0395 16.7501 29.0462 16.8891 29.7649C17.0201 30.436 17.167 30.5691 17.2167 30.6068C17.2995 30.5935 17.3807 30.5716 17.4589 30.5413C17.9354 30.3705 18.5807 29.9853 19.7025 29.3023C20.2386 28.9787 20.7429 28.6531 21.1778 28.3493C21.6741 27.9978 22.2301 27.569 22.8039 27.1024C23.9118 26.197 24.5889 25.6391 25.0158 25.1407C25.3791 24.7178 25.4565 24.4597 25.4565 24.1559C25.4565 23.8521 25.3771 23.594 25.0158 23.1711C24.5889 22.6727 23.9118 22.1148 22.8039 21.2094C22.2766 20.7755 21.7343 20.3602 21.1778 19.9645C20.6964 19.6304 20.2044 19.3119 19.7025 19.0094C18.5787 18.3264 17.9354 17.9412 17.4589 17.7705C17.3807 17.7402 17.2995 17.7182 17.2167 17.705Z" fill="white"/>
</svg>
