<svg width="35" height="45" viewBox="0 0 35 45" fill="none" xmlns="http://www.w3.org/2000/svg">
<path d="M32.9577 20.6957C32.0269 18.5624 30.6738 16.6477 28.983 15.0713L27.5878 13.7678C27.5405 13.7247 27.4834 13.6942 27.4218 13.6788C27.3601 13.6635 27.2957 13.6637 27.2341 13.6796C27.1726 13.6956 27.1158 13.7266 27.0688 13.7701C27.0218 13.8135 26.986 13.8681 26.9645 13.9289L26.3412 15.75C25.9529 16.8924 25.2385 18.0593 24.2269 19.2066C24.1597 19.2798 24.083 19.2993 24.0303 19.3042C23.9775 19.3091 23.896 19.2993 23.8241 19.231C23.757 19.1724 23.7234 19.0845 23.7282 18.9966C23.9056 16.0576 23.0426 12.7425 21.1536 9.13457C19.5905 6.13688 17.4186 3.7983 14.7049 2.16764L12.7247 0.981259C12.4658 0.825028 12.135 1.03008 12.1494 1.33766L12.2549 3.68113C12.3268 5.28249 12.1446 6.69834 11.7131 7.87495C11.1857 9.31521 10.4282 10.6529 9.45966 11.854C8.78565 12.6886 8.02173 13.4436 7.18225 14.1047C5.16042 15.6873 3.5164 17.7152 2.37332 20.0366C1.23305 22.3781 0.639087 24.9562 0.637695 27.5698C0.637695 29.8742 1.08359 32.1054 1.96578 34.2096C2.81761 36.2356 4.0469 38.0743 5.58567 39.624C7.1391 41.1863 8.94185 42.4167 10.9508 43.271C13.0316 44.1596 15.2371 44.6088 17.5145 44.6088C19.7919 44.6088 21.9974 44.1596 24.0782 43.2759C26.0822 42.4265 27.9045 41.1878 29.4433 39.6289C30.9967 38.0666 32.2146 36.2406 33.0632 34.2145C33.9441 32.116 34.3959 29.8568 34.3913 27.5747C34.3913 25.1922 33.9118 22.878 32.9577 20.6957ZM27.1515 37.261C24.5769 39.8584 21.1583 41.284 17.5145 41.284C13.8706 41.284 10.4521 39.8584 7.87746 37.261C5.31238 34.6686 3.89799 31.2315 3.89799 27.5747C3.89799 25.4509 4.36785 23.4151 5.2932 21.5208C6.19457 19.6704 7.53704 18.0153 9.16719 16.7411C10.2068 15.9316 11.1498 15.0009 11.9768 13.968C13.1754 12.4789 14.1152 10.8189 14.7672 9.03692C15.0347 8.30184 15.229 7.54129 15.3474 6.76669C16.5028 7.85054 17.4713 9.15898 18.2816 10.692C19.883 13.7483 20.6214 16.4677 20.4775 18.7818C20.4432 19.3269 20.5306 19.8727 20.7332 20.3784C20.9358 20.8841 21.2484 21.3364 21.6474 21.7014C21.9932 22.0195 22.3976 22.2644 22.8371 22.422C23.2766 22.5795 23.7425 22.6466 24.2077 22.6193C25.1522 22.5704 26.02 22.1457 26.6529 21.428C27.2906 20.7005 27.8419 19.9584 28.3022 19.2017C28.9735 20.0756 29.5344 21.0277 29.9803 22.0529C30.7426 23.8008 31.131 25.6609 31.131 27.5747C31.131 31.2315 29.7166 34.6735 27.1515 37.261Z" fill="white"/>
</svg>
